HIERARCHY
ROOT root
{
	OFFSET	0	13.1	24.9
	CHANNELS 6  Xposition Yposition Zposition Xrotation Yrotation Zrotation
	JOINT spine_1
	{
		OFFSET	0	9.99999	0
		CHANNELS 3  Xrotation Yrotation Zrotation
		JOINT spine_2
		{
			OFFSET	0	112	-10
			CHANNELS 3  Xrotation Yrotation Zrotation
			JOINT spine_3
			{
				OFFSET	0	206.5	19.3
				CHANNELS 3  Xrotation Yrotation Zrotation
				JOINT spine_4
				{
					OFFSET	0	110.4	14.6
					CHANNELS 3  Xrotation Yrotation Zrotation
					JOINT neck_1
					{
						OFFSET	0	71.8	-50.3
						CHANNELS 3  Xrotation Yrotation Zrotation
						JOINT neck_2
						{
							OFFSET	0	86.2	-25.8
							CHANNELS 3  Xrotation Yrotation Zrotation
							JOINT head_ee
							{
								OFFSET	0	179.8	-8.7
								CHANNELS 3  Xrotation Yrotation Zrotation
								End Site
								{
									OFFSET	1	0	0
								}
							}
						}
					}
					JOINT left_clavicle
					{
						OFFSET	-43.2	22.4	-70.8
						CHANNELS 3  Xrotation Yrotation Zrotation
						JOINT left_shoulder
						{
							OFFSET	-93.9	-5.79999	48.7
							CHANNELS 3  Xrotation Yrotation Zrotation
							JOINT left_elbow
							{
								OFFSET	-291.4	-30.8	15.2
								CHANNELS 3  Xrotation Yrotation Zrotation
								JOINT left_lowarm_twist
								{
									OFFSET	-110.7	-3.89999	13.6
									CHANNELS 3  Xrotation Yrotation Zrotation
									JOINT left_hand
									{
										OFFSET	-110.7	-3.89999	13.6
										CHANNELS 3  Xrotation Yrotation Zrotation
										JOINT left_ee
										{
											OFFSET	-80.8	-5.10001	12.1
											CHANNELS 3  Xrotation Yrotation Zrotation
											End Site
											{
												OFFSET	1	0	0
											}
										}
									}
								}
							}
						}
					}
					JOINT right_clavicle
					{
						OFFSET	43.2	22.4	-70.8
						CHANNELS 3  Xrotation Yrotation Zrotation
						JOINT right_shoulder
						{
							OFFSET	93.9	-5.79999	48.7
							CHANNELS 3  Xrotation Yrotation Zrotation
							JOINT right_elbow
							{
								OFFSET	291.4	-30.8	15.2
								CHANNELS 3  Xrotation Yrotation Zrotation
								JOINT right_lowarm_twist
								{
									OFFSET	110.7	-3.89999	13.6
									CHANNELS 3  Xrotation Yrotation Zrotation
									JOINT right_hand
									{
										OFFSET	110.7	-3.89999	13.6
										CHANNELS 3  Xrotation Yrotation Zrotation
										JOINT right_ee
										{
											OFFSET	80.8	-5.10001	12.1
											CHANNELS 3  Xrotation Yrotation Zrotation
											End Site
											{
												OFFSET	1	0	0
											}
										}
									}
								}
							}
						}
					}
				}
			}
		}
	}
	JOINT left_hip
	{
		OFFSET	-82.8	-127.5	0.300001
		CHANNELS 3  Xrotation Yrotation Zrotation
		JOINT left_knee
		{
			OFFSET	-28.2	-396.7	2.2
			CHANNELS 3  Xrotation Yrotation Zrotation
			JOINT left_ankle
			{
				OFFSET	-11.7	-411.3	35.4
				CHANNELS 3  Xrotation Yrotation Zrotation
				JOINT left_toes
				{
					OFFSET	0	-60	-88.6
					CHANNELS 3  Xrotation Yrotation Zrotation
					JOINT left_foot_ee
					{
						OFFSET	-22.5	-16.5	-42.2
						CHANNELS 3  Xrotation Yrotation Zrotation
						End Site
						{
							OFFSET	1	0	0
						}
					}
				}
			}
		}
	}
	JOINT right_hip
	{
		OFFSET	82.8	-127.5	0.300001
		CHANNELS 3  Xrotation Yrotation Zrotation
		JOINT right_knee
		{
			OFFSET	28.2	-396.7	2.2
			CHANNELS 3  Xrotation Yrotation Zrotation
			JOINT right_ankle
			{
				OFFSET	11.7	-411.3	35.4
				CHANNELS 3  Xrotation Yrotation Zrotation
				JOINT right_toes
				{
					OFFSET	0	-60	-88.6
					CHANNELS 3  Xrotation Yrotation Zrotation
					JOINT right_foot_ee
					{
						OFFSET	22.5	-16.5	-42.2
						CHANNELS 3  Xrotation Yrotation Zrotation
						End Site
						{
							OFFSET	1	0	0
						}
					}
				}
			}
		}
	}
}
MOTION
Frames: 9
Frame Time: 0.02
4082.6 672.758 -336.48 -5.57167 35.9232 4.20111 2.97343 0.216362 0.169643 2.97342 0.205128 0.183067 2.97409 0.173376 0.213382 2.97408 0.2049 0.183322 -9.75009 10.9144 5.06064 -9.77178 17.1102 7.61956 -0.0 0.0 -0.0 4.95526 20.3208 9.64822 29.6906 55.6294 47.0686 0.195386 -5.52848 0.0094338 81.9144 -4.06103 -8.71398 0.477762 22.2236 11.7366 -0.0 0.0 -0.0 12.1027 26.205 -23.5922 1.64486 -21.5658 -64.8146 0.229554 6.48763 -0.0130101 -27.3322 1.71539 -3.01068 5.74895 17.5978 -32.3573 0.0 0.0 0.0 7.70128 31.3221 2.811 -12.3116 0.308012 1.86067 15.7027 14.1196 -2.19914 37.591 -0.0 -0.0 -0.0 0.0 -0.0 19.4899 14.6182 2.43779 -16.2358 -0.321467 -2.46249 28.9603 -26.712 4.02865 1.05605 -0.0 -0.0 0.0 0.0 0.0 
4079.25 675.03 -332.209 -5.56677 33.9581 4.28686 3.04535 0.257369 -0.0119793 3.04531 0.25761 0.0044221 3.04535 0.253678 0.0450533 3.04544 0.25761 0.00442386 -10.7458 11.6961 5.32012 -10.8115 18.5789 8.22173 -0.0 0.0 -0.0 5.06236 21.3657 9.77546 29.5126 56.1111 46.1117 0.197779 -5.59577 0.00966574 82.6568 -4.14821 -8.75238 0.330732 24.4184 11.6305 -0.0 0.0 -0.0 12.4854 25.854 -24.5087 2.38964 -22.4851 -63.1354 0.220389 6.2307 -0.0119951 -27.1235 1.69707 -2.99118 6.15396 18.4833 -34.9505 0.0 0.0 0.0 6.83668 29.667 4.19235 -10.6024 0.289274 1.59909 17.3293 18.1728 -2.43756 28.4255 -0.0 -0.0 -0.0 0.0 -0.0 20.6304 13.6061 1.7369 -17.2794 -0.318105 -2.62258 28.8062 -23.5476 3.93578 -3.03166 0.0 0.0 0.0 0.0 0.0 
4069.2 678.832 -336.473 -5.30558 33.8589 3.62339 3.09689 0.146099 0.150634 3.0969 0.136218 0.159626 3.09728 0.10946 0.179037 3.09726 0.136361 0.159503 -10.5559 12.2207 5.65542 -10.6161 19.318 8.65331 -0.0 0.0 -0.0 3.62064 23.1936 7.68982 28.098 57.789 48.282 0.24336 -6.87419 0.0146164 84.3816 -4.35264 -8.83722 -0.748592 21.7329 4.32285 -0.0 0.0 -0.0 12.4823 23.5507 -24.7452 2.25729 -22.9385 -62.5879 0.205392 5.80973 -0.0104222 -28.3082 1.802 -3.10097 6.11447 24.1887 -30.7128 0.0 0.0 0.0 6.77363 23.0795 4.96048 -12.2042 0.307064 1.84422 14.5411 20.1956 -2.08259 26.4594 -0.0 -0.0 -0.0 0.0 -0.0 20.8805 14.9986 2.32651 -20.0474 -0.295072 -3.04662 23.4981 -24.6302 3.31319 9.07943 -0.0 -0.0 0.0 0.0 0.0 
4063.87 675.099 -331.755 -5.90291 32.2758 3.89992 3.30928 0.210226 0.128349 3.30927 0.201633 0.141466 3.30977 0.17755 0.170718 3.30979 0.202283 0.140535 -9.99378 12.4339 4.54001 -10.0788 20.3733 7.54607 -0.0 0.0 -0.0 4.71274 23.8488 9.19949 32.8193 55.9312 41.9099 0.189112 -5.35201 0.00883889 83.4829 -4.24581 -8.79379 -1.71293 22.46 -0.963644 -0.0 0.0 -0.0 12.449 23.6301 -24.6609 1.26613 -21.5421 -63.4433 0.20161 5.70346 -0.0100429 -27.4483 1.72561 -3.02149 5.98349 27.5158 -27.4206 0.0 0.0 0.0 7.17491 22.6196 5.76591 -12.0957 0.306076 1.8276 18.8573 22.8387 -2.68694 21.457 -0.0 -0.0 -0.0 0.0 -0.0 22.0362 10.2871 2.85878 -20.3576 -0.291216 -3.09406 23.8817 -16.4371 3.24601 11.8264 -0.0 -0.0 0.0 0.0 0.0 
4059.3 679.323 -329.308 -6.59737 33.0977 3.81934 3.44913 0.154002 0.25862 3.44915 0.137233 0.267896 3.44979 0.0952189 0.285542 3.4497 0.13912 0.266921 -9.07779 12.7343 4.1538 -9.13958 21.0534 7.08861 -0.0 0.0 -0.0 7.02362 22.0187 12.6152 35.9053 53.9524 36.1559 0.19552 -5.53226 0.00944666 83.577 -4.25695 -8.79841 -2.79056 20.2078 -8.43833 -0.0 0.0 -0.0 12.4041 20.3613 -24.8379 2.73379 -26.2029 -62.1991 0.235506 6.65437 -0.0136914 -25.4408 1.55199 -2.8316 5.96813 27.679 -27.1974 0.0 0.0 0.0 7.15723 20.8574 7.11223 -11.1595 0.296238 1.68429 18.6491 22.6483 -2.65708 17.4507 -0.0 -0.0 -0.0 0.0 -0.0 22.729 7.72881 3.57318 -21.5323 -0.274284 -3.2735 23.3844 -13.1826 3.16072 13.0015 -0.0 -0.0 0.0 0.0 0.0 
4057.47 676.016 -326.565 -6.9726 33.1457 4.13335 3.55822 0.183544 0.248711 3.55823 0.167346 0.259886 3.55899 0.126733 0.281929 3.55892 0.169668 0.258376 -8.92648 12.7442 3.57661 -8.99675 21.4452 6.50386 -0.0 0.0 -0.0 7.00249 22.2523 12.5627 33.3825 52.1372 38.8976 0.240785 -6.80216 0.0143099 85.0657 -4.4344 -8.86916 -3.85433 18.6918 -15.8333 -0.0 0.0 -0.0 11.3758 18.8332 -22.5861 3.51083 -25.4259 -64.1805 0.234157 6.61658 -0.0135354 -27.0248 1.68843 -2.98194 5.6525 27.728 -24.9749 0.0 0.0 0.0 7.82693 20.1198 7.3825 -11.4288 0.299308 1.7255 22.4866 25.089 -3.19311 10.0477 -0.0 -0.0 -0.0 0.0 -0.0 25.4134 2.58001 2.9509 -22.9287 -0.249373 -3.48632 20.4553 -14.6259 2.81124 17.2291 -0.0 -0.0 0.0 0.0 0.0 
4058.77 673.693 -320.243 -7.3879 32.6746 4.52585 3.70468 0.129091 0.198714 3.7047 0.116185 0.206525 3.70511 0.0846627 0.221323 3.70506 0.118554 0.205174 -9.61756 12.5941 4.6637 -9.68535 20.5302 7.64106 -0.0 0.0 -0.0 8.1008 22.9909 14.0947 31.0698 50.5625 39.0281 0.357953 -10.0554 0.0314912 85.1433 -4.44369 -8.87272 -4.54343 16.6857 -21.5665 -0.0 0.0 -0.0 11.058 19.3654 -21.8299 5.31617 -27.5977 -65.1154 0.20061 5.67534 -0.00994374 -23.2994 1.37428 -2.62253 5.23937 26.1393 -23.1853 0.0 0.0 0.0 8.15991 21.0452 7.76961 -10.8039 0.291888 1.6299 25.9739 25.46 -3.63796 2.6633 -0.0 -0.0 -0.0 0.0 -0.0 26.9861 -1.61979 3.33387 -23.4638 -0.238452 -3.56772 16.787 -8.61101 2.32527 23.72 -0.0 -0.0 0.0 0.0 0.0 
4051.3 671.935 -313.471 -7.914 33.11 5.19221 3.80529 0.0300508 -0.152066 3.8053 0.0396663 -0.149845 3.80519 0.0609504 -0.14252 3.80517 0.0376771 -0.150358 -9.1099 13.5788 3.78607 -9.20192 22.9034 6.94728 -0.0 0.0 -0.0 8.17232 23.6975 14.1071 27.9185 51.1904 41.9856 0.396119 -11.102 0.0384981 85.2849 -4.46067 -8.87918 -4.12059 14.7398 -19.9998 -0.0 0.0 -0.0 10.0421 18.0182 -19.6297 6.30032 -26.4386 -65.0656 0.19753 5.58876 -0.00964136 -25.3714 1.5461 -2.82492 6.05467 26.3474 -28.7531 0.0 0.0 0.0 8.21371 19.1448 8.61782 -9.72043 0.276555 1.46436 27.8179 26.9143 -3.89685 -0.397545 0.0 0.0 -0.0 0.0 -0.0 26.7964 -4.30799 2.76736 -21.9753 -0.266942 -3.34108 14.5013 -7.54661 2.0271 27.2301 -0.0 -0.0 0.0 0.0 0.0 
4053.51 670.736 -311.614 -8.882 33.3819 5.99304 3.98682 0.0612173 0.0453021 3.98682 0.0582105 0.0491057 3.98687 0.0506653 0.0568583 3.98687 0.0590091 0.0481431 -9.38678 12.2154 6.20608 -9.37892 18.7204 8.99645 -0.0 0.0 -0.0 8.11351 22.693 14.1512 30.2692 50.7798 40.2167 0.413328 -11.5716 0.0418811 85.2192 -4.45279 -8.87619 -5.83075 13.0059 -33.387 -0.0 0.0 -0.0 10.0368 15.7713 -19.7399 9.05663 -29.5099 -64.7605 0.190879 5.40173 -0.0090045 -23.3162 1.37564 -2.62419 6.26284 23.7416 -32.1309 0.0 0.0 0.0 8.84738 19.4459 8.51863 -8.58648 0.257156 1.29144 30.3476 26.9643 -4.19876 -5.98323 0.0 0.0 -0.0 0.0 -0.0 27.9514 -6.4014 2.69646 -22.2533 -0.262069 -3.38346 6.85173 -0.606192 0.992456 35.0801 -0.0 -0.0 0.0 0.0 0.0 
